<svg xmlns="http://www.w3.org/2000/svg" xmlns:xlink="http://www.w3.org/1999/xlink" width="500" zoomAndPan="magnify" viewBox="0 0 375 374.999991" height="500" preserveAspectRatio="xMidYMid meet" version="1.0"><defs><g/></defs><rect x="-37.5" width="450" fill="#ffffff" y="-37.499999" height="449.999989" fill-opacity="1"/><rect x="-37.5" width="450" fill="#ffffff" y="-37.499999" height="449.999989" fill-opacity="1"/><rect x="-37.5" width="450" fill="#282C34" y="-37.499999" height="449.999989" fill-opacity="1"/><g fill="#61dafb" fill-opacity="1"><g transform="translate(115.155683, 306.582792)"><g><path d="M 24.703125 -14.75 C 30.566406 -25.382812 35.289062 -37.15625 38.875 -50.0625 C 42.457031 -62.96875 45.65625 -75.988281 48.46875 -89.125 C 48.769531 -91.101562 48.957031 -92.988281 49.03125 -94.78125 C 49.269531 -96.363281 49.492188 -97.847656 49.703125 -99.234375 C 46.890625 -84.703125 43.476562 -70.253906 39.46875 -55.890625 C 35.59375 -41.109375 30.125 -27.78125 23.0625 -15.90625 C 22.507812 -17.601562 22.125 -19.078125 21.90625 -20.328125 C 21.695312 -21.585938 21.710938 -23.003906 21.953125 -24.578125 C 22.671875 -29.328125 24.210938 -34.148438 26.578125 -39.046875 C 28.941406 -43.941406 30.742188 -49.125 31.984375 -54.59375 L 36.40625 -55.75 C 37.875 -65.4375 39.734375 -75.015625 41.984375 -84.484375 C 44.242188 -93.960938 46.109375 -103.539062 47.578125 -113.21875 C 48.335938 -118.164062 48.929688 -123.035156 49.359375 -127.828125 C 49.785156 -132.617188 49.894531 -137.65625 49.6875 -142.9375 L 47.90625 -143.203125 C 46.945312 -128.992188 45.492188 -115.460938 43.546875 -102.609375 C 42.546875 -96.078125 41.394531 -89.878906 40.09375 -84.015625 C 38.875 -78.546875 37.332031 -73.015625 35.46875 -67.421875 C 36.707031 -71.679688 37.726562 -75.773438 38.53125 -79.703125 C 39.632812 -84.191406 40.578125 -89.007812 41.359375 -94.15625 C 43.796875 -110.164062 45.625 -126.519531 46.84375 -143.21875 C 48.070312 -159.925781 49.515625 -177.054688 51.171875 -194.609375 L 52.4375 -202.921875 C 53.394531 -205.191406 54.132812 -207.703125 54.65625 -210.453125 C 55.175781 -213.210938 55.832031 -215.847656 56.625 -218.359375 C 57.414062 -220.867188 58.476562 -222.882812 59.8125 -224.40625 C 61.15625 -225.925781 63.113281 -226.488281 65.6875 -226.09375 L 70.5 -223.84375 L 71.734375 -220 L 74.40625 -219.59375 C 75.382812 -220.65625 76.363281 -221.113281 77.34375 -220.96875 C 78.53125 -220.78125 79.648438 -220.15625 80.703125 -219.09375 C 81.753906 -218.03125 83.070312 -217.378906 84.65625 -217.140625 C 87.625 -216.679688 89.390625 -214.332031 89.953125 -210.09375 C 90.515625 -205.863281 90.535156 -200.703125 90.015625 -194.609375 C 89.492188 -188.515625 88.679688 -181.859375 87.578125 -174.640625 C 86.484375 -167.429688 85.851562 -160.597656 85.6875 -154.140625 C 85.40625 -148.328125 85.066406 -142.46875 84.671875 -136.5625 C 84.273438 -130.65625 83.628906 -124.734375 82.734375 -118.796875 C 81.828125 -112.867188 80.570312 -105.976562 78.96875 -98.125 C 77.375 -90.28125 75.585938 -82.207031 73.609375 -73.90625 C 71.640625 -65.613281 69.523438 -57.390625 67.265625 -49.234375 C 65.015625 -41.078125 62.800781 -33.828125 60.625 -27.484375 C 58.445312 -21.148438 56.257812 -16.070312 54.0625 -12.25 C 51.863281 -8.4375 49.972656 -6.648438 48.390625 -6.890625 C 47.992188 -6.953125 47.429688 -7.238281 46.703125 -7.75 C 49.046875 -13.863281 51.34375 -19.988281 53.59375 -26.125 C 55.84375 -32.257812 57.988281 -38.710938 60.03125 -45.484375 C 57.6875 -39.367188 55.269531 -33.109375 52.78125 -26.703125 C 50.289062 -20.304688 47.710938 -14.378906 45.046875 -8.921875 C 44.378906 -9.828125 43.457031 -10.375 42.28125 -10.5625 C 41.875 -10.625 41.347656 -10.195312 40.703125 -9.28125 C 40.054688 -8.363281 39.238281 -7.320312 38.25 -6.15625 C 37.269531 -5 36.113281 -4.015625 34.78125 -3.203125 C 33.445312 -2.398438 32.085938 -2.101562 30.703125 -2.3125 C 29.328125 -2.519531 28.285156 -2.976562 27.578125 -3.6875 C 26.867188 -4.40625 26.332031 -5.25 25.96875 -6.21875 C 25.613281 -7.1875 25.265625 -8.195312 24.921875 -9.25 C 24.585938 -10.3125 24.078125 -11.300781 23.390625 -12.21875 Z M 72.109375 -94.9375 C 70.328125 -91.15625 68.941406 -87.671875 67.953125 -84.484375 C 66.960938 -81.296875 66.191406 -78.222656 65.640625 -75.265625 C 65.085938 -72.316406 64.570312 -69.257812 64.09375 -66.09375 C 63.664062 -63.320312 63.09375 -60.273438 62.375 -56.953125 C 64.1875 -63.566406 65.816406 -69.59375 67.265625 -75.03125 C 68.960938 -80.84375 70.578125 -87.476562 72.109375 -94.9375 Z M 35.28125 -66.234375 C 35.34375 -66.640625 35.40625 -67.035156 35.46875 -67.421875 C 35.40625 -67.035156 35.34375 -66.640625 35.28125 -66.234375 Z M 35.28125 -66.234375 "/></g></g></g><g fill="#61dafb" fill-opacity="1"><g transform="translate(196.122092, 318.912713)"><g><path d="M 24.703125 -14.75 C 30.566406 -25.382812 35.289062 -37.15625 38.875 -50.0625 C 42.457031 -62.96875 45.65625 -75.988281 48.46875 -89.125 C 48.769531 -91.101562 48.957031 -92.988281 49.03125 -94.78125 C 49.269531 -96.363281 49.492188 -97.847656 49.703125 -99.234375 C 46.890625 -84.703125 43.476562 -70.253906 39.46875 -55.890625 C 35.59375 -41.109375 30.125 -27.78125 23.0625 -15.90625 C 22.507812 -17.601562 22.125 -19.078125 21.90625 -20.328125 C 21.695312 -21.585938 21.710938 -23.003906 21.953125 -24.578125 C 22.671875 -29.328125 24.210938 -34.148438 26.578125 -39.046875 C 28.941406 -43.941406 30.742188 -49.125 31.984375 -54.59375 L 36.40625 -55.75 C 37.875 -65.4375 39.734375 -75.015625 41.984375 -84.484375 C 44.242188 -93.960938 46.109375 -103.539062 47.578125 -113.21875 C 48.335938 -118.164062 48.929688 -123.035156 49.359375 -127.828125 C 49.785156 -132.617188 49.894531 -137.65625 49.6875 -142.9375 L 47.90625 -143.203125 C 46.945312 -128.992188 45.492188 -115.460938 43.546875 -102.609375 C 42.546875 -96.078125 41.394531 -89.878906 40.09375 -84.015625 C 38.875 -78.546875 37.332031 -73.015625 35.46875 -67.421875 C 36.707031 -71.679688 37.726562 -75.773438 38.53125 -79.703125 C 39.632812 -84.191406 40.578125 -89.007812 41.359375 -94.15625 C 43.796875 -110.164062 45.625 -126.519531 46.84375 -143.21875 C 48.070312 -159.925781 49.515625 -177.054688 51.171875 -194.609375 L 52.4375 -202.921875 C 53.394531 -205.191406 54.132812 -207.703125 54.65625 -210.453125 C 55.175781 -213.210938 55.832031 -215.847656 56.625 -218.359375 C 57.414062 -220.867188 58.476562 -222.882812 59.8125 -224.40625 C 61.15625 -225.925781 63.113281 -226.488281 65.6875 -226.09375 L 70.5 -223.84375 L 71.734375 -220 L 74.40625 -219.59375 C 75.382812 -220.65625 76.363281 -221.113281 77.34375 -220.96875 C 78.53125 -220.78125 79.648438 -220.15625 80.703125 -219.09375 C 81.753906 -218.03125 83.070312 -217.378906 84.65625 -217.140625 C 87.625 -216.679688 89.390625 -214.332031 89.953125 -210.09375 C 90.515625 -205.863281 90.535156 -200.703125 90.015625 -194.609375 C 89.492188 -188.515625 88.679688 -181.859375 87.578125 -174.640625 C 86.484375 -167.429688 85.851562 -160.597656 85.6875 -154.140625 C 85.40625 -148.328125 85.066406 -142.46875 84.671875 -136.5625 C 84.273438 -130.65625 83.628906 -124.734375 82.734375 -118.796875 C 81.828125 -112.867188 80.570312 -105.976562 78.96875 -98.125 C 77.375 -90.28125 75.585938 -82.207031 73.609375 -73.90625 C 71.640625 -65.613281 69.523438 -57.390625 67.265625 -49.234375 C 65.015625 -41.078125 62.800781 -33.828125 60.625 -27.484375 C 58.445312 -21.148438 56.257812 -16.070312 54.0625 -12.25 C 51.863281 -8.4375 49.972656 -6.648438 48.390625 -6.890625 C 47.992188 -6.953125 47.429688 -7.238281 46.703125 -7.75 C 49.046875 -13.863281 51.34375 -19.988281 53.59375 -26.125 C 55.84375 -32.257812 57.988281 -38.710938 60.03125 -45.484375 C 57.6875 -39.367188 55.269531 -33.109375 52.78125 -26.703125 C 50.289062 -20.304688 47.710938 -14.378906 45.046875 -8.921875 C 44.378906 -9.828125 43.457031 -10.375 42.28125 -10.5625 C 41.875 -10.625 41.347656 -10.195312 40.703125 -9.28125 C 40.054688 -8.363281 39.238281 -7.320312 38.25 -6.15625 C 37.269531 -5 36.113281 -4.015625 34.78125 -3.203125 C 33.445312 -2.398438 32.085938 -2.101562 30.703125 -2.3125 C 29.328125 -2.519531 28.285156 -2.976562 27.578125 -3.6875 C 26.867188 -4.40625 26.332031 -5.25 25.96875 -6.21875 C 25.613281 -7.1875 25.265625 -8.195312 24.921875 -9.25 C 24.585938 -10.3125 24.078125 -11.300781 23.390625 -12.21875 Z M 72.109375 -94.9375 C 70.328125 -91.15625 68.941406 -87.671875 67.953125 -84.484375 C 66.960938 -81.296875 66.191406 -78.222656 65.640625 -75.265625 C 65.085938 -72.316406 64.570312 -69.257812 64.09375 -66.09375 C 63.664062 -63.320312 63.09375 -60.273438 62.375 -56.953125 C 64.1875 -63.566406 65.816406 -69.59375 67.265625 -75.03125 C 68.960938 -80.84375 70.578125 -87.476562 72.109375 -94.9375 Z M 35.28125 -66.234375 C 35.34375 -66.640625 35.40625 -67.035156 35.46875 -67.421875 C 35.40625 -67.035156 35.34375 -66.640625 35.28125 -66.234375 Z M 35.28125 -66.234375 "/></g></g></g><g fill="#61dafb" fill-opacity="1"><g transform="translate(277.088501, 331.242633)"><g><path d="M 24.703125 -14.75 C 30.566406 -25.382812 35.289062 -37.15625 38.875 -50.0625 C 42.457031 -62.96875 45.65625 -75.988281 48.46875 -89.125 C 48.769531 -91.101562 48.957031 -92.988281 49.03125 -94.78125 C 49.269531 -96.363281 49.492188 -97.847656 49.703125 -99.234375 C 46.890625 -84.703125 43.476562 -70.253906 39.46875 -55.890625 C 35.59375 -41.109375 30.125 -27.78125 23.0625 -15.90625 C 22.507812 -17.601562 22.125 -19.078125 21.90625 -20.328125 C 21.695312 -21.585938 21.710938 -23.003906 21.953125 -24.578125 C 22.671875 -29.328125 24.210938 -34.148438 26.578125 -39.046875 C 28.941406 -43.941406 30.742188 -49.125 31.984375 -54.59375 L 36.40625 -55.75 C 37.875 -65.4375 39.734375 -75.015625 41.984375 -84.484375 C 44.242188 -93.960938 46.109375 -103.539062 47.578125 -113.21875 C 48.335938 -118.164062 48.929688 -123.035156 49.359375 -127.828125 C 49.785156 -132.617188 49.894531 -137.65625 49.6875 -142.9375 L 47.90625 -143.203125 C 46.945312 -128.992188 45.492188 -115.460938 43.546875 -102.609375 C 42.546875 -96.078125 41.394531 -89.878906 40.09375 -84.015625 C 38.875 -78.546875 37.332031 -73.015625 35.46875 -67.421875 C 36.707031 -71.679688 37.726562 -75.773438 38.53125 -79.703125 C 39.632812 -84.191406 40.578125 -89.007812 41.359375 -94.15625 C 43.796875 -110.164062 45.625 -126.519531 46.84375 -143.21875 C 48.070312 -159.925781 49.515625 -177.054688 51.171875 -194.609375 L 52.4375 -202.921875 C 53.394531 -205.191406 54.132812 -207.703125 54.65625 -210.453125 C 55.175781 -213.210938 55.832031 -215.847656 56.625 -218.359375 C 57.414062 -220.867188 58.476562 -222.882812 59.8125 -224.40625 C 61.15625 -225.925781 63.113281 -226.488281 65.6875 -226.09375 L 70.5 -223.84375 L 71.734375 -220 L 74.40625 -219.59375 C 75.382812 -220.65625 76.363281 -221.113281 77.34375 -220.96875 C 78.53125 -220.78125 79.648438 -220.15625 80.703125 -219.09375 C 81.753906 -218.03125 83.070312 -217.378906 84.65625 -217.140625 C 87.625 -216.679688 89.390625 -214.332031 89.953125 -210.09375 C 90.515625 -205.863281 90.535156 -200.703125 90.015625 -194.609375 C 89.492188 -188.515625 88.679688 -181.859375 87.578125 -174.640625 C 86.484375 -167.429688 85.851562 -160.597656 85.6875 -154.140625 C 85.40625 -148.328125 85.066406 -142.46875 84.671875 -136.5625 C 84.273438 -130.65625 83.628906 -124.734375 82.734375 -118.796875 C 81.828125 -112.867188 80.570312 -105.976562 78.96875 -98.125 C 77.375 -90.28125 75.585938 -82.207031 73.609375 -73.90625 C 71.640625 -65.613281 69.523438 -57.390625 67.265625 -49.234375 C 65.015625 -41.078125 62.800781 -33.828125 60.625 -27.484375 C 58.445312 -21.148438 56.257812 -16.070312 54.0625 -12.25 C 51.863281 -8.4375 49.972656 -6.648438 48.390625 -6.890625 C 47.992188 -6.953125 47.429688 -7.238281 46.703125 -7.75 C 49.046875 -13.863281 51.34375 -19.988281 53.59375 -26.125 C 55.84375 -32.257812 57.988281 -38.710938 60.03125 -45.484375 C 57.6875 -39.367188 55.269531 -33.109375 52.78125 -26.703125 C 50.289062 -20.304688 47.710938 -14.378906 45.046875 -8.921875 C 44.378906 -9.828125 43.457031 -10.375 42.28125 -10.5625 C 41.875 -10.625 41.347656 -10.195312 40.703125 -9.28125 C 40.054688 -8.363281 39.238281 -7.320312 38.25 -6.15625 C 37.269531 -5 36.113281 -4.015625 34.78125 -3.203125 C 33.445312 -2.398438 32.085938 -2.101562 30.703125 -2.3125 C 29.328125 -2.519531 28.285156 -2.976562 27.578125 -3.6875 C 26.867188 -4.40625 26.332031 -5.25 25.96875 -6.21875 C 25.613281 -7.1875 25.265625 -8.195312 24.921875 -9.25 C 24.585938 -10.3125 24.078125 -11.300781 23.390625 -12.21875 Z M 72.109375 -94.9375 C 70.328125 -91.15625 68.941406 -87.671875 67.953125 -84.484375 C 66.960938 -81.296875 66.191406 -78.222656 65.640625 -75.265625 C 65.085938 -72.316406 64.570312 -69.257812 64.09375 -66.09375 C 63.664062 -63.320312 63.09375 -60.273438 62.375 -56.953125 C 64.1875 -63.566406 65.816406 -69.59375 67.265625 -75.03125 C 68.960938 -80.84375 70.578125 -87.476562 72.109375 -94.9375 Z M 35.28125 -66.234375 C 35.34375 -66.640625 35.40625 -67.035156 35.46875 -67.421875 C 35.40625 -67.035156 35.34375 -66.640625 35.28125 -66.234375 Z M 35.28125 -66.234375 "/></g></g></g><g fill="#ffffff" fill-opacity="1"><g transform="translate(1.195317, 291.749981)"><g><path d="M 90.90625 -210 C 83.300781 -210.394531 75.796875 -210.84375 68.390625 -211.34375 C 60.992188 -211.84375 53.5 -212.09375 45.90625 -212.09375 L 37.203125 -212.09375 C 34.597656 -212.09375 31.894531 -211.992188 29.09375 -211.796875 C 26.300781 -211.597656 23.703125 -211.25 21.296875 -210.75 C 18.898438 -210.25 16.898438 -209.5 15.296875 -208.5 C 13.703125 -207.5 12.90625 -206.300781 12.90625 -204.90625 C 12.90625 -195.90625 13.050781 -188.753906 13.34375 -183.453125 C 13.644531 -178.148438 14 -174.597656 14.40625 -172.796875 C 14.195312 -170.203125 14.09375 -167.65625 14.09375 -165.15625 C 14.09375 -162.65625 14.09375 -160.101562 14.09375 -157.5 L 14.09375 -142.5 C 14.09375 -134.5 14.039062 -128.445312 13.9375 -124.34375 C 13.84375 -120.25 13.796875 -116.101562 13.796875 -111.90625 C 13.796875 -109.101562 13.796875 -105.898438 13.796875 -102.296875 C 13.796875 -98.703125 13.894531 -94.050781 14.09375 -88.34375 C 14.300781 -82.644531 14.503906 -75.695312 14.703125 -67.5 C 14.898438 -59.300781 15.195312 -49.203125 15.59375 -37.203125 C 15 -31.398438 14.703125 -26.097656 14.703125 -21.296875 C 14.703125 -18.703125 14.847656 -16.203125 15.140625 -13.796875 C 15.441406 -11.398438 15.59375 -8.800781 15.59375 -6 C 15.59375 -4.601562 14.992188 -3.550781 13.796875 -2.84375 C 12.597656 -2.144531 12 -1.597656 12 -1.203125 L 12.59375 -1.203125 C 12.800781 -1.203125 12.90625 -1.148438 12.90625 -1.046875 C 12.90625 -0.953125 13.003906 -0.90625 13.203125 -0.90625 C 13.796875 -1.5 14.296875 -1.796875 14.703125 -1.796875 C 15.296875 -1.796875 15.84375 -1.445312 16.34375 -0.75 C 16.84375 -0.0507812 17.296875 0.5 17.703125 0.90625 C 18.097656 -0.695312 18.894531 -1.5 20.09375 -1.5 L 40.203125 -1.5 C 42.398438 -1.5 44.847656 -1.648438 47.546875 -1.953125 C 50.242188 -2.253906 52.09375 -2.40625 53.09375 -2.40625 C 54.09375 -2.40625 54.59375 -2.351562 54.59375 -2.25 C 54.59375 -2.144531 54.894531 -1.894531 55.5 -1.5 L 56.09375 -1.796875 C 59.300781 -3.597656 61.101562 -4.5 61.5 -4.5 C 62.300781 -4.5 63.5 -4.097656 65.09375 -3.296875 L 66.296875 -4.796875 C 66.296875 -5.398438 65.945312 -5.75 65.25 -5.84375 C 64.550781 -5.945312 64.203125 -6.5 64.203125 -7.5 C 64.203125 -8.894531 64.601562 -9.992188 65.40625 -10.796875 C 64.40625 -11.796875 63.90625 -12.695312 63.90625 -13.5 L 63.90625 -14.09375 C 64.300781 -13.695312 64.597656 -13.5 64.796875 -13.5 L 64.796875 -13.796875 C 64.796875 -15.992188 64.742188 -18.242188 64.640625 -20.546875 C 64.546875 -22.847656 64.5 -25.097656 64.5 -27.296875 L 64.5 -42.90625 C 64.5 -44.300781 64.5 -45.648438 64.5 -46.953125 C 64.5 -48.253906 64.300781 -49.601562 63.90625 -51 L 63.59375 -50.40625 L 63.59375 -52.5 C 63.800781 -52.5 63.90625 -52.695312 63.90625 -53.09375 C 63.90625 -53.5 63.800781 -53.847656 63.59375 -54.140625 C 63.394531 -54.441406 63.296875 -54.796875 63.296875 -55.203125 C 63.296875 -55.796875 63.695312 -56.195312 64.5 -56.40625 C 64.300781 -56.800781 64.203125 -57.695312 64.203125 -59.09375 L 64.203125 -61.5 C 64.203125 -64.101562 64.347656 -66.550781 64.640625 -68.84375 C 64.941406 -71.144531 65.296875 -73.597656 65.703125 -76.203125 L 63.90625 -78.296875 L 64.796875 -78.90625 C 65.203125 -78.695312 66.101562 -78.59375 67.5 -78.59375 L 70.203125 -78.59375 C 72.796875 -78.59375 75.34375 -78.691406 77.84375 -78.890625 C 80.34375 -79.097656 82.992188 -79.203125 85.796875 -79.203125 L 88.203125 -79.203125 C 96.203125 -80.203125 103.398438 -82.898438 109.796875 -87.296875 C 116.203125 -91.703125 122.601562 -96.203125 129 -100.796875 C 133.195312 -107.597656 137.09375 -114.648438 140.6875 -121.953125 C 144.289062 -129.253906 146.09375 -137.101562 146.09375 -145.5 C 146.09375 -152.300781 144.59375 -159.300781 141.59375 -166.5 C 138.59375 -173.695312 134.59375 -180.34375 129.59375 -186.4375 C 124.59375 -192.539062 118.742188 -197.742188 112.046875 -202.046875 C 105.347656 -206.347656 98.300781 -209 90.90625 -210 Z M 131.40625 -112.5 C 130.601562 -108.5 127.898438 -104.5 123.296875 -100.5 C 118.703125 -96.5 113.800781 -93.5 108.59375 -91.5 C 105.59375 -90.300781 101.59375 -88.5 96.59375 -86.09375 C 91.59375 -83.695312 85.195312 -82.5 77.40625 -82.5 C 71.195312 -82.5 66.296875 -83.195312 62.703125 -84.59375 C 62.703125 -87.195312 61.898438 -88.5 60.296875 -88.5 L 60 -86.703125 C 58.601562 -86.703125 57.90625 -86.300781 57.90625 -85.5 C 57.90625 -85.101562 58.003906 -84.753906 58.203125 -84.453125 C 58.398438 -84.148438 58.5 -83.800781 58.5 -83.40625 C 58.5 -83 58.398438 -82.742188 58.203125 -82.640625 C 58.003906 -82.546875 57.90625 -82.300781 57.90625 -81.90625 C 57.90625 -81.5 58.003906 -80.796875 58.203125 -79.796875 C 58.398438 -78.796875 58.5 -77.5 58.5 -75.90625 C 58.5 -74.90625 58.398438 -73.953125 58.203125 -73.046875 C 58.003906 -72.148438 57.90625 -71.300781 57.90625 -70.5 C 57.90625 -69.101562 58.40625 -67.90625 59.40625 -66.90625 C 60.195312 -64.101562 60.441406 -60.800781 60.140625 -57 C 59.847656 -53.195312 60 -50.195312 60.59375 -48 C 60.394531 -46.195312 60.242188 -44.34375 60.140625 -42.4375 C 60.046875 -40.539062 60 -38.492188 60 -36.296875 C 60 -34.703125 60.046875 -33.101562 60.140625 -31.5 C 60.242188 -29.894531 60.296875 -28.296875 60.296875 -26.703125 L 60.296875 -22.796875 C 60.296875 -19.992188 60.144531 -16.941406 59.84375 -13.640625 C 59.550781 -10.347656 59.203125 -8.703125 58.796875 -8.703125 L 58.203125 -9 L 58.203125 -6.59375 C 58.203125 -6.394531 57.648438 -6.195312 56.546875 -6 C 55.453125 -5.800781 54.101562 -5.550781 52.5 -5.25 C 50.894531 -4.945312 49.144531 -4.695312 47.25 -4.5 C 45.351562 -4.300781 43.601562 -4.203125 42 -4.203125 C 39.601562 -4.203125 37.203125 -4.25 34.796875 -4.34375 C 32.398438 -4.445312 30 -4.597656 27.59375 -4.796875 C 27.195312 -5.398438 26.800781 -5.703125 26.40625 -5.703125 L 25.203125 -5.703125 C 25.003906 -5.703125 24.703125 -5.898438 24.296875 -6.296875 L 21.59375 -6.59375 C 21.59375 -7 21.644531 -7.25 21.75 -7.34375 C 21.851562 -7.445312 21.90625 -7.695312 21.90625 -8.09375 C 21.90625 -8.5 21.65625 -9.203125 21.15625 -10.203125 C 20.65625 -11.203125 20.40625 -12.300781 20.40625 -13.5 C 20.40625 -14.101562 20.453125 -14.65625 20.546875 -15.15625 C 20.648438 -15.65625 20.703125 -16.300781 20.703125 -17.09375 C 20.703125 -17.5 20.648438 -18.25 20.546875 -19.34375 C 20.453125 -20.445312 20.300781 -21.597656 20.09375 -22.796875 C 19.894531 -23.992188 19.742188 -25.09375 19.640625 -26.09375 C 19.546875 -27.09375 19.5 -27.796875 19.5 -28.203125 C 19.695312 -28.597656 19.796875 -30 19.796875 -32.40625 C 19.796875 -34.601562 19.644531 -36.898438 19.34375 -39.296875 C 19.050781 -41.703125 18.90625 -44.101562 18.90625 -46.5 C 18.90625 -48.695312 19.203125 -51 19.796875 -53.40625 C 19.203125 -58.800781 18.90625 -64.097656 18.90625 -69.296875 C 18.90625 -72.492188 19.101562 -77.039062 19.5 -82.9375 C 19.894531 -88.84375 20.492188 -96.296875 21.296875 -105.296875 C 21.296875 -106.703125 21.195312 -107.601562 21 -108 C 21 -108.394531 21.046875 -110.84375 21.140625 -115.34375 C 21.242188 -119.84375 21.5 -126.59375 21.90625 -135.59375 C 22.300781 -144.59375 22.597656 -151.492188 22.796875 -156.296875 C 22.992188 -161.097656 23.09375 -164 23.09375 -165 C 23.09375 -166 23.039062 -167.046875 22.9375 -168.140625 C 22.84375 -169.242188 22.695312 -170.394531 22.5 -171.59375 C 23.300781 -177.195312 23.75 -182.597656 23.84375 -187.796875 C 23.945312 -192.992188 24.097656 -198.492188 24.296875 -204.296875 C 24.492188 -204.492188 25.394531 -204.59375 27 -204.59375 L 33 -206.09375 C 33.394531 -205.695312 33.695312 -205.5 33.90625 -205.5 C 34.300781 -205.5 34.75 -205.648438 35.25 -205.953125 C 35.75 -206.253906 36.195312 -206.40625 36.59375 -206.40625 L 41.703125 -206.40625 C 42.097656 -206 42.695312 -205.796875 43.5 -205.796875 C 44.101562 -206.796875 45.15625 -207.195312 46.65625 -207 C 48.15625 -206.800781 49.503906 -206.898438 50.703125 -207.296875 C 50.898438 -206.703125 51.398438 -206.40625 52.203125 -206.40625 C 52.597656 -206.40625 53.394531 -206.453125 54.59375 -206.546875 C 55.800781 -206.648438 56.503906 -206.703125 56.703125 -206.703125 L 60.90625 -206.703125 C 65.101562 -206.703125 69.300781 -206.25 73.5 -205.34375 C 77.695312 -204.445312 81.742188 -203.445312 85.640625 -202.34375 C 89.546875 -201.25 93.148438 -200.25 96.453125 -199.34375 C 99.753906 -198.445312 102.601562 -198 105 -198 C 106 -198 107.296875 -197.445312 108.890625 -196.34375 C 110.492188 -195.25 112.195312 -193.953125 114 -192.453125 C 115.800781 -190.953125 117.5 -189.453125 119.09375 -187.953125 C 120.695312 -186.453125 122 -185.300781 123 -184.5 L 133.796875 -169.5 C 135.203125 -165.5 136.40625 -161.398438 137.40625 -157.203125 C 138.40625 -153.003906 139.101562 -148.703125 139.5 -144.296875 C 138.894531 -141.898438 138.492188 -139.25 138.296875 -136.34375 C 138.097656 -133.445312 137.847656 -130.546875 137.546875 -127.640625 C 137.242188 -124.742188 136.644531 -121.992188 135.75 -119.390625 C 134.851562 -116.796875 133.40625 -114.5 131.40625 -112.5 Z M 63.296875 -166.796875 C 62.703125 -166.203125 61.90625 -165.90625 60.90625 -165.90625 C 60.5 -165.90625 60.144531 -165.953125 59.84375 -166.046875 C 59.550781 -166.148438 59.203125 -166.203125 58.796875 -166.203125 C 57.203125 -166.203125 56.40625 -165.5 56.40625 -164.09375 L 57.59375 -126 C 56.800781 -125.394531 56.40625 -124.894531 56.40625 -124.5 C 56.40625 -123.894531 56.753906 -123.242188 57.453125 -122.546875 C 58.148438 -121.847656 58.5 -121.300781 58.5 -120.90625 C 61.894531 -121.101562 65.09375 -121.203125 68.09375 -121.203125 C 71.09375 -121.203125 74.296875 -121.398438 77.703125 -121.796875 C 80.296875 -122.597656 83.09375 -123.195312 86.09375 -123.59375 C 89.09375 -124 91.894531 -124.75 94.5 -125.84375 C 97.101562 -126.945312 99.253906 -128.75 100.953125 -131.25 C 102.648438 -133.75 103.5 -137.597656 103.5 -142.796875 C 103.5 -146.796875 102.347656 -150.296875 100.046875 -153.296875 C 97.742188 -156.296875 94.84375 -158.84375 91.34375 -160.9375 C 87.84375 -163.039062 84.144531 -164.59375 80.25 -165.59375 C 76.351562 -166.59375 72.800781 -167.09375 69.59375 -167.09375 L 66.296875 -167.09375 C 64.703125 -167.09375 63.703125 -166.992188 63.296875 -166.796875 Z M 93.59375 -132.59375 C 89.59375 -131.195312 85.492188 -129.945312 81.296875 -128.84375 C 77.097656 -127.75 72.695312 -126.800781 68.09375 -126 C 67.695312 -126.394531 67 -126.59375 66 -126.59375 C 65 -126.59375 64.195312 -126.796875 63.59375 -127.203125 C 62 -137.398438 61.097656 -145.097656 60.890625 -150.296875 C 60.691406 -155.492188 60.59375 -158.796875 60.59375 -160.203125 C 60.59375 -161.398438 60.894531 -162.046875 61.5 -162.140625 C 62.101562 -162.242188 63.601562 -162.5 66 -162.90625 C 68.800781 -161.90625 72 -161.15625 75.59375 -160.65625 C 79.195312 -160.15625 82.597656 -159.351562 85.796875 -158.25 C 88.992188 -157.144531 91.691406 -155.492188 93.890625 -153.296875 C 96.097656 -151.097656 97.203125 -147.800781 97.203125 -143.40625 C 97.203125 -139.195312 96 -135.59375 93.59375 -132.59375 Z M 93.59375 -132.59375 "/></g></g></g><g fill="#ffffff" fill-opacity="1"><g transform="translate(150.29509, 291.749981)"><g><path d="M 119.703125 -195.59375 C 114.503906 -200.59375 108.40625 -204.144531 101.40625 -206.25 C 94.40625 -208.351562 87.203125 -209.40625 79.796875 -209.40625 C 69.203125 -209.40625 58.503906 -207.453125 47.703125 -203.546875 C 36.898438 -199.648438 28 -194.300781 21 -187.5 C 16 -181.101562 12.445312 -174.15625 10.34375 -166.65625 C 8.25 -159.15625 7.203125 -151.203125 7.203125 -142.796875 C 7.203125 -137.398438 7.800781 -132.148438 9 -127.046875 C 10.195312 -121.953125 12.09375 -117.15625 14.6875 -112.65625 C 17.289062 -108.15625 20.539062 -104.15625 24.4375 -100.65625 C 28.34375 -97.15625 32.894531 -94.40625 38.09375 -92.40625 C 42.300781 -90.800781 46.851562 -89.597656 51.75 -88.796875 C 56.644531 -87.992188 61.394531 -86.992188 66 -85.796875 C 70.601562 -84.597656 74.953125 -82.847656 79.046875 -80.546875 C 83.148438 -78.242188 86.5 -74.796875 89.09375 -70.203125 C 90.300781 -68.398438 90.90625 -66.597656 90.90625 -64.796875 C 90.90625 -58.398438 89.003906 -53.25 85.203125 -49.34375 C 81.398438 -45.445312 76.5 -43.5 70.5 -43.5 C 63.695312 -43.5 58.195312 -46.5 54 -52.5 C 53 -53.300781 52.347656 -54.300781 52.046875 -55.5 C 51.742188 -56.695312 51.441406 -57.945312 51.140625 -59.25 C 50.847656 -60.550781 50.398438 -61.703125 49.796875 -62.703125 C 49.203125 -63.703125 48.203125 -64.398438 46.796875 -64.796875 C 43.992188 -64.398438 41.144531 -64.097656 38.25 -63.890625 C 35.351562 -63.691406 32.503906 -63.59375 29.703125 -63.59375 C 25.503906 -63.59375 21.253906 -63.691406 16.953125 -63.890625 C 12.648438 -64.097656 8.300781 -64.398438 3.90625 -64.796875 L 2.09375 -63.296875 C 2.5 -56.898438 3.347656 -50.703125 4.640625 -44.703125 C 5.941406 -38.703125 8.195312 -33.101562 11.40625 -27.90625 C 13 -26.101562 14.546875 -24.050781 16.046875 -21.75 C 17.546875 -19.445312 19.046875 -17.195312 20.546875 -15 C 22.046875 -12.800781 23.742188 -10.800781 25.640625 -9 C 27.546875 -7.195312 29.800781 -5.894531 32.40625 -5.09375 C 39 -3.5 45.09375 -2.25 50.6875 -1.34375 C 56.289062 -0.445312 62.492188 0 69.296875 0 L 72.59375 0 C 74.394531 0 75.597656 -0.0976562 76.203125 -0.296875 C 76.398438 -0.0976562 77 0 78 0 C 79.195312 0 80.546875 -0.148438 82.046875 -0.453125 C 83.546875 -0.753906 84.894531 -0.90625 86.09375 -0.90625 L 87.296875 -0.90625 C 91.492188 -3.90625 95.59375 -6.300781 99.59375 -8.09375 L 105.90625 -10.796875 C 106.90625 -11.203125 108.003906 -11.753906 109.203125 -12.453125 C 110.398438 -13.148438 111.597656 -13.898438 112.796875 -14.703125 L 116.09375 -14.703125 C 115.09375 -13.097656 113.789062 -11.84375 112.1875 -10.9375 C 110.59375 -10.039062 109.296875 -8.894531 108.296875 -7.5 C 118.492188 -12.300781 126.039062 -19.597656 130.9375 -29.390625 C 135.84375 -39.191406 138.296875 -50.09375 138.296875 -62.09375 C 138.296875 -71.695312 137.144531 -79.695312 134.84375 -86.09375 C 132.550781 -92.5 129.40625 -97.898438 125.40625 -102.296875 C 121.40625 -106.703125 116.753906 -110.550781 111.453125 -113.84375 C 106.148438 -117.144531 100.5 -120.597656 94.5 -124.203125 C 91.695312 -125.796875 88.046875 -126.84375 83.546875 -127.34375 C 79.046875 -127.84375 74.695312 -128.59375 70.5 -129.59375 C 66.300781 -130.59375 62.648438 -132.289062 59.546875 -134.6875 C 56.453125 -137.09375 54.90625 -141 54.90625 -146.40625 C 54.90625 -149.800781 55.703125 -152.898438 57.296875 -155.703125 C 58.898438 -158.503906 61.800781 -160.203125 66 -160.796875 L 64.796875 -161.40625 C 65.597656 -162.195312 67 -162.691406 69 -162.890625 C 71 -163.097656 72.800781 -163.203125 74.40625 -163.203125 C 79 -163.203125 83.394531 -161.703125 87.59375 -158.703125 C 91.800781 -155.703125 93.90625 -151.601562 93.90625 -146.40625 C 93.90625 -145 93.503906 -143.894531 92.703125 -143.09375 C 94.296875 -141.894531 96.441406 -141.144531 99.140625 -140.84375 C 101.847656 -140.550781 104.703125 -140.40625 107.703125 -140.40625 C 113.503906 -140.40625 119.15625 -140.453125 124.65625 -140.546875 C 130.15625 -140.648438 135.503906 -141.398438 140.703125 -142.796875 C 140.898438 -144.398438 141.046875 -145.847656 141.140625 -147.140625 C 141.242188 -148.441406 141.296875 -149.894531 141.296875 -151.5 C 141.296875 -160.101562 139.59375 -168.203125 136.1875 -175.796875 C 132.789062 -183.398438 127.296875 -190 119.703125 -195.59375 Z M 129.59375 -145.5 C 129.195312 -145.5 128.898438 -145.398438 128.703125 -145.203125 L 128.40625 -145.203125 C 127.40625 -145.203125 126.40625 -145.398438 125.40625 -145.796875 C 124.40625 -146.203125 123.40625 -146.40625 122.40625 -146.40625 C 120.40625 -146.40625 118.203125 -146.15625 115.796875 -145.65625 C 113.398438 -145.15625 111.101562 -144.90625 108.90625 -144.90625 C 105.300781 -144.90625 102.195312 -145.203125 99.59375 -145.796875 C 98.800781 -148.796875 97.601562 -151.796875 96 -154.796875 C 94.394531 -157.796875 92.394531 -160.445312 90 -162.75 C 87.601562 -165.050781 84.851562 -166.953125 81.75 -168.453125 C 78.644531 -169.953125 75.195312 -170.703125 71.40625 -170.703125 C 67.40625 -170.703125 64.101562 -169.953125 61.5 -168.453125 C 58.894531 -166.953125 56.84375 -165.050781 55.34375 -162.75 C 53.84375 -160.445312 52.789062 -157.84375 52.1875 -154.9375 C 51.59375 -152.039062 51.296875 -149.296875 51.296875 -146.703125 C 51.296875 -143.296875 51.796875 -139.691406 52.796875 -135.890625 C 53.796875 -132.097656 56.195312 -129.300781 60 -127.5 L 89.09375 -115.203125 C 94.695312 -112.796875 100.097656 -110.394531 105.296875 -108 C 110.492188 -105.601562 115.039062 -102.601562 118.9375 -99 C 122.84375 -95.394531 125.945312 -90.992188 128.25 -85.796875 C 130.550781 -80.597656 131.703125 -74 131.703125 -66 C 131.703125 -61 131.148438 -56.148438 130.046875 -51.453125 C 128.953125 -46.753906 127.503906 -42.40625 125.703125 -38.40625 C 119.296875 -29.800781 111.691406 -22.296875 102.890625 -15.890625 C 94.097656 -9.492188 84.101562 -6.296875 72.90625 -6.296875 C 70.5 -6.296875 68.296875 -6.644531 66.296875 -7.34375 C 64.296875 -8.050781 62.394531 -8.40625 60.59375 -8.40625 L 59.09375 -8.40625 C 57.695312 -8.40625 56.695312 -8.703125 56.09375 -9.296875 C 55.300781 -8.492188 54.203125 -8.09375 52.796875 -8.09375 C 49.398438 -8.09375 45.75 -8.894531 41.84375 -10.5 C 37.945312 -12.101562 34.195312 -14.15625 30.59375 -16.65625 C 27 -19.15625 23.800781 -22.050781 21 -25.34375 C 18.195312 -28.644531 16.195312 -32.097656 15 -35.703125 C 14.601562 -35.703125 14.101562 -36.5 13.5 -38.09375 C 12.894531 -39.695312 12.34375 -41.597656 11.84375 -43.796875 C 11.34375 -45.992188 10.894531 -48.289062 10.5 -50.6875 C 10.101562 -53.09375 9.800781 -55.097656 9.59375 -56.703125 C 10 -56.503906 10.800781 -56.40625 12 -56.40625 L 14.703125 -56.40625 C 18.503906 -56.40625 22.253906 -56.703125 25.953125 -57.296875 C 29.648438 -57.898438 33.5 -58.203125 37.5 -58.203125 C 41.300781 -58.203125 44.398438 -57.800781 46.796875 -57 C 47.992188 -55.195312 49.191406 -53.296875 50.390625 -51.296875 C 51.597656 -49.296875 53.050781 -47.445312 54.75 -45.75 C 56.445312 -44.050781 58.492188 -42.703125 60.890625 -41.703125 C 63.296875 -40.703125 66.300781 -40.203125 69.90625 -40.203125 C 73.5 -40.203125 76.894531 -40.898438 80.09375 -42.296875 C 83.300781 -43.703125 86.101562 -45.550781 88.5 -47.84375 C 90.894531 -50.144531 92.789062 -52.742188 94.1875 -55.640625 C 95.59375 -58.546875 96.296875 -61.5 96.296875 -64.5 C 96.296875 -67.101562 95.695312 -69.601562 94.5 -72 C 91.300781 -77.195312 87.398438 -81.242188 82.796875 -84.140625 C 78.203125 -87.046875 73.253906 -89.398438 67.953125 -91.203125 C 62.648438 -93.003906 57.195312 -94.453125 51.59375 -95.546875 C 46 -96.648438 40.5 -98 35.09375 -99.59375 C 34.09375 -100 33.144531 -100.703125 32.25 -101.703125 C 31.351562 -102.703125 30.90625 -103.703125 30.90625 -104.703125 C 25.300781 -109.296875 20.898438 -114.492188 17.703125 -120.296875 C 14.503906 -126.097656 12.90625 -132.195312 12.90625 -138.59375 C 12.90625 -142.59375 13.003906 -145.289062 13.203125 -146.6875 C 13.398438 -148.09375 14.097656 -150.5 15.296875 -153.90625 C 16.703125 -157.695312 18.300781 -162.34375 20.09375 -167.84375 C 21.894531 -173.34375 25.097656 -178.195312 29.703125 -182.40625 L 29.09375 -184.203125 C 28.09375 -183.597656 26.941406 -182.695312 25.640625 -181.5 C 24.347656 -180.300781 23.703125 -179.398438 23.703125 -178.796875 C 23.703125 -179.398438 24.148438 -180.453125 25.046875 -181.953125 C 25.953125 -183.453125 27.101562 -185 28.5 -186.59375 C 29.894531 -188.195312 31.441406 -189.695312 33.140625 -191.09375 C 34.847656 -192.5 36.5 -193.398438 38.09375 -193.796875 C 36.894531 -192.203125 35.445312 -191.050781 33.75 -190.34375 C 32.050781 -189.644531 31.203125 -188.894531 31.203125 -188.09375 C 31.203125 -187.695312 31.398438 -187.5 31.796875 -187.5 C 32.597656 -187.5 33.695312 -188.347656 35.09375 -190.046875 C 36.5 -191.742188 38.300781 -192.59375 40.5 -192.59375 C 43.5 -195.59375 48.296875 -197.992188 54.890625 -199.796875 C 61.492188 -201.597656 67.894531 -202.5 74.09375 -202.5 L 77.40625 -202.5 C 78 -202.5 79.097656 -202.300781 80.703125 -201.90625 C 85.898438 -200.300781 91.296875 -198.398438 96.890625 -196.203125 C 102.492188 -194.003906 107.695312 -191.300781 112.5 -188.09375 C 117.300781 -184.894531 121.5 -181.046875 125.09375 -176.546875 C 128.695312 -172.046875 131 -166.796875 132 -160.796875 C 132.394531 -157.992188 132.539062 -155.539062 132.4375 -153.4375 C 132.34375 -151.34375 132.394531 -149.195312 132.59375 -147 Z M 129.59375 -145.5 "/></g></g></g></svg>